<svg xmlns="http://www.w3.org/2000/svg" version="1.1" xmlns:xlink="http://www.w3.org/1999/xlink" xmlns:svgjs="http://svgjs.dev/svgjs" width="100%" height="100%" viewBox="0 0 1000 600"><rect width="1000" height="600" x="0" y="0" fill="#b011ee"/><g><rect width="333.3333333333333" height="333.3333333333333" rx="13.333333333333334" ry="13.333333333333334" y="193.6721711853221" fill="#ffffff" transform="matrix(0.7290759128934654,0,0,0.7290759128934654,0,37.28566325324357)" x="171.449951171875"/><path d="M318.908766043089 358.5953181097817L318.908766043089 429.06806858408527L355.1560809440093 427.9252672250425Q362.6868488741116 427.7201490323938 367.8441062892789 426.16711128805355Q373.00136370444625 424.6140735437134 376.6934911721229 421.80102404453123Q380.4149212387493 418.95867194639925 383.19866813898165 414.7977028955256Q385.9531124402642 410.6074312457022 388.73685934049655 405.1571478410367L388.73685934049655 405.1571478410367L391.7257244333776 406.3878569969289L381.5284199988422 433.9029974108046L379.8874744576526 435.33882475934547L304.9900315419272 435.33882475934547Q303.0267574122896 431.1192505105722 303.0267574122896 425.22942812165957L303.0267574122896 425.22942812165957L303.0267574122896 315.72561584620337Q303.0267574122896 308.92741288984644 302.4114028343435 304.5613256463241Q301.7960482563974 300.165935803852 300.1551027152078 297.5580044973185Q298.51415717401824 294.9207705918352 295.58389727903676 293.8951796285917Q292.62433478510553 292.8695886653482 287.99452415103485 292.8695886653482L287.99452415103485 292.8695886653482Q287.2912617762393 292.8695886653482 286.50009160459433 292.8695886653482Q285.73822403189916 292.8695886653482 284.9177512613044 292.95749646219764L284.9177512613044 292.95749646219764L284.50751487600695 289.96863136931654Q313.8687190237209 285.3388207352459 349.1783507582472 285.3388207352459L349.1783507582472 285.3388207352459Q367.22875171133285 285.3388207352459 387.0080060024575 286.56952989113813L387.0080060024575 286.56952989113813L387.7112683772531 288.32768582812696L377.92420032801505 313.99676250816435L374.64230924563583 312.941868945971Q375.4627820162307 309.0446232856457 375.87301840152804 305.7334296043167Q376.28325478682547 302.45153852193744 376.28325478682547 299.31616043430733Q376.28325478682547 296.1514797477274 375.4627820162307 293.36773284749506L375.4627820162307 293.36773284749506Q367.72689589347965 292.66447047269946 360.25473316127704 292.3128392853017Q352.7825704290743 291.93190549895417 345.36901289477134 291.93190549895417L345.36901289477134 291.93190549895417Q331.88981737785673 291.93190549895417 318.908766043089 293.1626146548463L318.908766043089 293.1626146548463L318.908766043089 351.3868787681274L375.25766382358194 348.2808032794471L376.28325478682547 349.4236046384899L371.4483259601061 357.8627531360364Q366.8185153260354 357.65763494338773 362.0714942961655 357.5697271465383Q357.32447326629557 357.45251675073905 352.37233404377696 357.45251675073905L352.37233404377696 357.45251675073905Q344.3434219315278 357.45251675073905 335.99218123083074 357.774845339187Q327.6702431290835 358.0678713286851 318.908766043089 358.5953181097817L318.908766043089 358.5953181097817Z " fill="#b011ee" transform="matrix(0.7290759128934654,0,0,0.7290759128934654,0,37.28566325324357)"/><path d="M621.3555774000963 356.1202484363465L621.3555774000963 424.2119817540121L656.378227759328 423.1077914839958Q663.6545585130245 422.90960348681347 668.6375710136103 421.4090372224324Q673.6205835141964 419.90847095805145 677.1879674634795 417.19046413955004Q680.7836639837885 414.4441447500226 683.473358231264 410.4237596643226Q686.1347399077132 406.3750620075965 688.8244341551886 401.10892379675L688.8244341551886 401.10892379675L691.7123163998464 402.2980517798444L681.8595416827787 428.88355597331133L680.2740377053196 430.2708719535881L607.9071061627195 430.2708719535881Q606.0101639039738 426.193861725836 606.0101639039738 420.5030349495986L606.0101639039738 420.5030349495986L606.0101639039738 314.69895702522604Q606.0101639039738 308.1304405471809 605.4155999124266 303.91186746429855Q604.8210359208794 299.66498181039003 603.2355319434203 297.1451629890711Q601.650027965961 294.59703159672597 598.8187708633554 293.606091610814Q595.9592011897237 292.61515162490207 591.4858149676068 292.61515162490207L591.4858149676068 292.61515162490207Q590.8063132629815 292.61515162490207 590.0418738452779 292.61515162490207Q589.3057469986004 292.61515162490207 588.5129950098709 292.7000893379802L588.5129950098709 292.7000893379802L588.1166190155061 289.81220709332246Q616.4858151836146 285.3388208712056 650.6024632700125 285.3388208712056L650.6024632700125 285.3388208712056Q668.0430070220632 285.3388208712056 687.1539924646513 286.5279488542999L687.1539924646513 286.5279488542999L687.8334941692766 288.2267031158633L678.3770954465738 313.0285153346887L675.2060874916555 312.0092627777507Q675.9988394803851 308.24369083128516 676.3952154747499 305.0443703053408Q676.7915914691147 301.87336235042244 676.7915914691147 298.84391725063443Q676.7915914691147 295.7861595798204 675.9988394803851 293.096465332345L675.9988394803851 293.096465332345Q668.5243207295061 292.4169636277196 661.3046151178619 292.07721277540696Q654.0849095062174 291.70914935206827 646.9218290366252 291.70914935206827L646.9218290366252 291.70914935206827Q633.8980463646392 291.70914935206827 621.3555774000963 292.89827733516256L621.3555774000963 292.89827733516256L621.3555774000963 349.1553559639366L675.8006514832027 346.1542234351747L676.7915914691147 347.25841370519083L672.1200172498154 355.41243416069506Q667.6466310276985 355.2142461635127 663.0599945214773 355.12930845043445Q658.4733580152562 355.01605816633025 653.6885335118527 355.01605816633025L653.6885335118527 355.01605816633025Q645.9308890507132 355.01605816633025 637.8618063082872 355.3274964476169Q629.8210361368872 355.6106221578775 621.3555774000963 356.1202484363465L621.3555774000963 356.1202484363465ZM803.8017850920036 329.7329322400619L758.5016714503133 435.33882216725215L751.5367789779035 433.35694219542825L719.6001988605119 349.5517319583014Q718.2978205933133 345.7578474408099 716.9105046130366 343.0681531933345Q715.5231886327598 340.37845894585917 713.2298703796491 338.79295496839995Q710.9365521265387 337.20745099094086 707.3125430352035 336.81107499657605Q703.6602213728421 336.41469900221125 697.9977071676309 337.09420070683666L697.9977071676309 337.09420070683666L697.0067671817189 335.11232073501264Q713.7111840870921 326.76011228232596 726.9614673272865 326.76011228232596L726.9614673272865 326.76011228232596L753.2355332394668 397.0319135689979Q756.6330417625936 408.4701922635247 757.9071074587662 415.3501470228564L757.9071074587662 415.3501470228564L759.4926114362253 415.3501470228564Q759.9173000016161 414.0477687556578 760.9931777006062 410.4237596643226Q762.0973679706225 406.7714380019613 763.0033702434563 404.25161918064225Q763.881059945264 401.70348778829725 764.871999931176 399.32523182210855L764.871999931176 399.32523182210855L790.9478778461739 339.18933096276476Q792.8448201049197 334.60269445654365 785.3986139250669 333.3286287603711L785.3986139250669 333.3286287603711Q781.2932911262888 332.73406476882394 775.0362129295303 333.2153784762669L775.0362129295303 333.2153784762669L774.441648937983 330.8371225100782Q787.0690556156042 328.14742826260283 802.499406824805 327.751052268238L802.499406824805 327.751052268238L803.8017850920036 329.7329322400619ZM818.4393843124747 381.79975035697953L818.4393843124747 381.79975035697953Q818.4393843124747 371.23916136426055 821.9218305486796 361.3297615051408Q825.4042767848846 351.44867421704714 831.8595429788254 343.71934232693377Q838.3431217437923 336.01832300784645 847.5447073272605 331.37506135957324Q856.7462929107289 326.76011228232596 868.2128841762817 326.76011228232596L868.2128841762817 326.76011228232596Q875.3759646458741 326.76011228232596 881.7462931267366 329.1949933905669Q888.1166216075994 331.6298744988077 892.8448209689509 336.75444985452395Q897.5730203303021 341.8790252102401 900.2910271488036 349.8914828106141Q903.0373465383311 357.90394041098807 903.0373465383311 368.94584311115L903.0373465383311 368.94584311115L899.1585243077614 372.54153963145916L834.152861231936 372.54153963145916Q833.9546732347536 374.24029389302257 833.9546732347536 375.82579787048167Q833.9546732347536 377.4113018479409 833.9546732347536 378.9968058254L833.9546732347536 378.9968058254Q833.9546732347536 389.8688330994057 836.5028046270986 398.7306678305613Q839.0226234484176 407.5641899906909 843.3544468154042 413.90620590052754Q847.6862701823909 420.2199092393381 853.5752849558106 423.7023554755431Q859.4359871582043 427.1848017117479 866.0045036362494 427.1848017117479L866.0045036362494 427.1848017117479Q870.1947641481057 427.1848017117479 874.5265875150924 426.5336125781487Q878.8584108820789 425.8824234445493 882.9920462518832 424.49510746427256Q887.1256816216874 423.1077914839958 891.0045038522571 420.92772351498945Q894.8833260828269 418.71934297495716 898.1675843218494 415.633272733117L898.1675843218494 415.633272733117L902.2445945496015 419.90847095805145Q894.3736998043578 427.69442799021704 885.1154890788374 431.0069988002656Q875.857278353317 434.3478821813402 863.7111853831389 434.3478821813402L863.7111853831389 434.3478821813402Q854.1698489473579 434.3478821813402 845.8459530656971 430.6672479479529Q837.5503697550628 426.9866137145656 831.4631669844606 420.1066589552338Q825.4042767848846 413.2550167669282 821.9218305486796 403.5438049049909Q818.4393843124747 393.8325930430535 818.4393843124747 381.79975035697953ZM866.0045036362494 333.6117544706317L866.0045036362494 333.6117544706317Q850.5741524270486 333.6117544706317 843.4110719574564 341.6242120710057Q836.247991487864 349.63666967137954 834.7474252234831 364.67064488621554L834.7474252234831 364.67064488621554L890.2117518635275 364.67064488621554Q889.390687303772 348.362603975207 882.878795967779 340.9730229374063Q876.3669046317859 333.6117544706317 866.0045036362494 333.6117544706317ZM936.2763049229213 420.30484695241626L936.2763049229213 356.5166244307113Q936.2763049229213 349.834857668562 935.625115789322 345.3614714464451Q935.0022392267488 340.88808522432817 933.3601101072375 338.1983909768528Q931.7179809877262 335.50869672937745 928.8300987430684 334.4045064593612Q925.9422164984107 333.3286287603711 922.6862708304143 333.3286287603711Q919.4586377334438 333.3286287603711 918.7508234577924 333.41356647344924L918.7508234577924 333.41356647344924L918.3544474634275 331.6298744988077Q934.5775506613579 326.76011228232596 948.5356481772037 326.76011228232596L948.5356481772037 326.76011228232596Q950.6024658621059 332.0262504931725 950.6024658621059 338.11345326377466L950.6024658621059 338.11345326377466L950.6024658621059 340.9730229374063Q956.3782303514213 337.09420070683666 961.276305138929 334.20631846217884Q966.1460673554107 331.31843621752114 970.8742667167621 329.3365562456971Q975.6024660781136 327.3546762738732 980.5854785786995 326.3637362879613Q985.5401785082594 325.3727963020493 991.5141309947572 325.3727963020493L991.5141309947572 325.3727963020493Q996.893519489708 325.3727963020493 1002.2162828426066 326.76011228232596Q1007.5390461955051 328.14742826260283 1011.7859318494136 331.743124782912Q1016.004504932296 335.3105087321951 1018.6375740377193 341.4826492158753Q1021.2989557141685 347.65478969955564 1021.2989557141685 357.11118842225846L1021.2989557141685 357.11118842225846L1021.2989557141685 419.0307812562437Q1021.2989557141685 421.4090372224324 1022.4314585552108 422.9945411998916Q1023.563961396253 424.6083577483769 1025.4042785129468 425.684235447367Q1027.2729082006665 426.78842571738323 1029.651164166855 427.5245525640606Q1032.029420133044 428.2889919817642 1034.634176667441 429.0817439704937L1034.634176667441 429.0817439704937L1033.7281743946073 431.4599999366825Q1028.1505979024741 430.2708719535881 1018.8923871769538 430.2708719535881L1018.8923871769538 430.2708719535881Q1013.2298729717425 430.2708719535881 1005.6704165077854 431.8563759310473L1005.6704165077854 431.8563759310473L1005.0758525162382 430.86543594513523Q1007.0577324880621 427.97755370047753 1007.0577324880621 420.30484695241626L1007.0577324880621 420.30484695241626L1007.0577324880621 360.7918226556458Q1007.0577324880621 352.4396142029592 1005.472228510603 347.1168508500606Q1003.8584119621179 341.79408749716197 1001.1404051436164 338.73632982634786Q998.3940857540889 335.7068847265598 994.7700766627537 334.5177567434655Q991.1177550003924 333.3286287603711 987.0407447726404 333.3286287603711L987.0407447726404 333.3286287603711Q982.0577322720544 333.3286287603711 977.7259089050677 334.20631846217884Q973.4223981091072 335.11232073501264 969.0905747421206 336.9526378517063Q964.758751375134 338.79295496839995 960.285365153017 341.5392743579274Q955.7836663598741 344.2572811764288 950.6024658621059 347.9662279808423L950.6024658621059 347.9662279808423L950.6024658621059 416.62421271902895Q950.6024658621059 419.8235332449733 951.1120921405748 421.7487880747451Q951.6217184190439 423.7023554755431 953.207222396503 425.00473374274156Q954.7927263739621 426.2787994389141 957.6806086186199 427.29805199585223Q960.5684908632776 428.2889919817642 965.2400650825768 429.4781199648585L965.2400650825768 429.4781199648585L964.4473130938474 431.8563759310473Q958.6715486045318 431.0636239423177 954.6511635188318 430.6672479479529Q950.6024658621059 430.2708719535881 948.1392721828388 430.2708719535881L948.1392721828388 430.2708719535881Q942.4484454066016 430.2708719535881 934.8889889426446 431.8563759310473L934.8889889426446 431.8563759310473L934.2944249510974 430.86543594513523Q936.2763049229213 427.97755370047753 936.2763049229213 420.30484695241626L936.2763049229213 420.30484695241626ZM1082.1143582781376 338.11345326377466L1082.1143582781376 402.8076780583134Q1082.1143582781376 416.34108700876834 1085.0871782358736 421.4656623644846Q1088.0883107646355 426.5902377202008 1094.7417649557588 426.5902377202008L1094.7417649557588 426.5902377202008Q1102.0180957094553 426.5902377202008 1112.46543441807 421.1259115121719L1112.46543441807 421.1259115121719L1115.5515046599103 425.40110973710637Q1099.1302134647976 434.3478821813402 1088.6828747561826 434.3478821813402L1088.6828747561826 434.3478821813402Q1083.1052982640495 434.3478821813402 1079.6228520278446 433.35694219542825Q1076.1404057916398 432.3660022095163 1073.252523546982 429.4781199648585Q1070.3646413023241 426.5902377202008 1069.1188881771777 420.9560360860155Q1067.873135052031 415.3501470228564 1067.873135052031 406.3750620075965L1067.873135052031 406.3750620075965L1067.873135052031 338.90620525250415L1052.9524101212996 339.7838949543119L1052.9524101212996 333.41356647344924Q1060.7949922955172 331.743124782912 1067.873135052031 331.233498504443L1067.873135052031 331.233498504443L1067.873135052031 317.1055255624408Q1076.3385937888222 312.3207010590373 1081.717982283773 303.45886632788165L1081.717982283773 303.45886632788165L1084.804052525613 304.647994310976Q1083.1052982640495 308.6400668256499 1082.5956719855806 313.65139189726193Q1082.1143582781376 318.6910295399 1082.1143582781376 330.63893451289573L1082.1143582781376 330.63893451289573L1116.3442566486397 330.63893451289573L1116.3442566486397 334.1213807491007Q1112.1539961367835 335.8201350106641 1107.8787979118488 336.9526378517063Q1103.6035996869145 338.11345326377466 1099.0169631806934 338.11345326377466L1099.0169631806934 338.11345326377466L1082.1143582781376 338.11345326377466ZM1200.1494668857665 407.08287628324797L1200.1494668857665 407.08287628324797Q1200.1494668857665 414.24595675284024 1197.2615846411088 419.4271572506085Q1194.373702396451 424.6083577483769 1189.5605653220216 427.92092855842543Q1184.7191156765657 431.26181193950003 1178.292162053651 432.8190033459332Q1171.8935210017623 434.3478821813402 1164.8153782452482 434.3478821813402L1164.8153782452482 434.3478821813402Q1147.6862727744842 434.3478821813402 1132.6806101306743 427.1848017117479L1132.6806101306743 427.1848017117479Q1134.549239818394 420.6162852337029 1136.4461820771398 414.98208359951764Q1138.3431243358855 409.3761945363585 1140.3250043077096 404.59137003295496L1140.3250043077096 404.59137003295496L1143.2128865523673 405.5823100188669Q1142.3351968505594 409.9707585279057 1142.3351968505594 413.9911436136057Q1142.3351968505594 418.03984127033175 1142.6183225608202 421.32409950935426L1142.6183225608202 421.32409950935426Q1145.70439280266 422.90960348681347 1148.3940870501356 424.04210632785566Q1151.083781297611 425.202921739924 1153.7734755450863 425.93904858660153Q1156.4631697925615 426.6751754332789 1159.549240034402 427.0432388566177Q1162.6353102762419 427.3829897089304 1166.712320503994 427.3829897089304L1166.712320503994 427.3829897089304Q1172.77121070357 427.3829897089304 1176.763283218244 426.5902377202008Q1180.755355732918 425.79748573147117 1182.9920488439766 423.8439183306733Q1185.2287419550348 421.9186635009015 1186.1064316568427 418.66271783290495Q1187.0124339296765 415.43508473593454 1187.0124339296765 410.6502602325311L1187.0124339296765 410.6502602325311Q1187.0124339296765 406.96962599914366 1185.76668080453 403.74199290217325Q1184.5209276793835 400.51435980520284 1181.4914825795954 397.3150392792585Q1178.4620374798073 394.1440313243402 1173.4223998371695 390.7182102301873Q1168.4110747655573 387.2640765650085 1160.9365560146784 383.1870663372564L1160.9365560146784 383.1870663372564Q1148.9037133286047 376.0239858676641 1142.7315728449244 368.91753054012395Q1136.559432361244 361.7827626415577 1136.559432361244 353.6287421860535L1136.559432361244 353.6287421860535Q1136.559432361244 347.14516342108664 1139.2491266087195 342.1338383494747Q1141.9388208561948 337.09420070683666 1146.5537699334418 333.6683796126838Q1151.168719010689 330.2425585185309 1157.3408594943694 328.4871791149154Q1163.5129999780497 326.76011228232596 1170.3929547373814 326.76011228232596L1170.3929547373814 326.76011228232596Q1173.8754009735862 326.76011228232596 1177.697598062104 327.241425989769Q1181.5481077216477 327.751052268238 1185.1154916709306 328.6853671120979Q1188.7111881912397 329.6479945269838 1191.853883575132 330.97868536520843Q1194.9682663879985 332.33768877445914 1197.2615846411088 334.0081304649965L1197.2615846411088 334.0081304649965Q1194.0905766861906 347.0602257080085 1189.5039401799695 356.913000425076L1189.5039401799695 356.913000425076L1186.6160579353118 355.80881015505986Q1186.814245932494 352.92092791040216 1186.9274962165982 348.7023548275197Q1187.0124339296765 344.4837817446373 1187.0124339296765 338.7080172553218L1187.0124339296765 338.7080172553218Q1180.5571677357357 333.6117544706317 1169.090576470183 333.6117544706317L1169.090576470183 333.6117544706317Q1163.4280622649715 333.6117544706317 1159.4926148923496 334.31956874628304Q1155.557167519728 335.0273830219345 1153.178911553539 336.69782471247186Q1150.7723430163242 338.39657897403515 1149.7247778883602 341.34108636074507Q1148.7055253314222 344.2572811764288 1148.7055253314222 348.7589799695718L1148.7055253314222 348.7589799695718Q1148.7055253314222 352.0432382085944 1149.5832150332299 354.8744953112Q1150.489217306064 357.7057524138056 1152.7825355591744 360.45207180333307Q1155.075853812285 363.1700786218345 1158.9829886138807 366.02964829546625Q1162.9184359865026 368.86090539807185 1169.090576470183 372.14516363709436L1169.090576470183 372.14516363709436Q1178.745163190068 377.4113018479409 1184.775740818618 381.40337436261484Q1190.806318447168 385.36713430626276 1194.2321395413207 389.21764396580636Q1197.6579606354737 393.03984105432403 1198.9037137606201 397.23010156618034Q1200.1494668857665 401.3920495070106 1200.1494668857665 407.08287628324797Z " fill="#ffffff" transform="matrix(0.7290759128934654,0,0,0.7290759128934654,0,37.28566325324357)"/></g></svg>